<?xml version="1.0" standalone="no"?>
<!DOCTYPE svg PUBLIC "-//W3C//DTD SVG 20010904//EN"
 "http://www.w3.org/TR/2001/REC-SVG-20010904/DTD/svg10.dtd">
<svg version="1.0" xmlns="http://www.w3.org/2000/svg"
 width="267.000000pt" height="267.000000pt" viewBox="0 0 267.000000 267.000000"
 preserveAspectRatio="xMidYMid meet">

<g transform="translate(0.000000,267.000000) scale(0.100000,-0.100000)"
fill="#000000" stroke="none">
<path d="M1652 2599 c-59 -45 -90 -74 -85 -82 14 -25 676 -913 692 -929 15
-15 22 -12 108 50 50 37 92 71 92 76 1 9 -697 950 -708 953 -3 2 -48 -29 -99
-68z"/>
<path d="M1235 2200 c-65 -77 -75 -94 -64 -105 53 -48 899 -745 906 -744 7 0
48 47 131 150 l23 28 -413 343 c-227 189 -434 360 -459 381 l-47 38 -77 -91z"/>
<path d="M935 1745 c-14 -30 -36 -80 -50 -111 -14 -31 -25 -58 -23 -59 2 -2
237 -112 523 -245 286 -133 528 -246 538 -252 15 -8 24 5 68 98 27 59 46 111
42 115 -4 4 -231 112 -503 239 -272 128 -512 241 -533 251 l-37 19 -25 -55z"/>
<path d="M730 1135 c-13 -64 -21 -117 -19 -119 2 -1 258 -55 569 -120 311 -64
572 -119 581 -122 14 -4 20 15 39 111 13 64 20 118 17 122 -6 6 -1130 243
-1152 243 -8 0 -21 -44 -35 -115z"/>
<path d="M207 954 c-4 -4 -7 -220 -7 -481 l0 -473 1075 0 1075 0 0 480 0 480
-120 0 -120 0 0 -360 0 -360 -830 0 -830 0 -2 357 -3 358 -116 3 c-63 1 -118
-1 -122 -4z"/>
<path d="M680 600 l0 -120 595 0 595 0 0 120 0 120 -595 0 -595 0 0 -120z"/>
</g>
</svg>
