<?xml version="1.0" standalone="no"?>
<!DOCTYPE svg PUBLIC "-//W3C//DTD SVG 20010904//EN"
 "http://www.w3.org/TR/2001/REC-SVG-20010904/DTD/svg10.dtd">
<svg version="1.0" xmlns="http://www.w3.org/2000/svg"
 width="512.000000pt" height="512.000000pt" viewBox="0 0 512.000000 512.000000"
 preserveAspectRatio="xMidYMid meet">

<g transform="translate(0.000000,512.000000) scale(0.100000,-0.100000)"
fill="#000000" stroke="none">
<path d="M2380 4794 c-403 -47 -687 -140 -985 -322 -471 -287 -832 -757 -983
-1282 -67 -232 -86 -372 -86 -630 0 -258 19 -398 86 -630 216 -751 836 -1349
1595 -1539 214 -54 316 -66 558 -65 238 0 365 16 569 69 616 160 1157 605
1436 1180 104 215 161 392 202 635 29 169 31 510 5 675 -83 508 -306 941 -664
1286 -336 323 -729 520 -1198 600 -115 19 -445 34 -535 23z m827 -259 c1109
-363 1700 -1567 1312 -2671 -56 -161 -220 -475 -260 -500 -6 -4 -66 48 -133
115 l-121 121 -325 0 -325 0 -80 -80 -80 -80 -195 0 -195 0 -163 163 -162 162
0 175 0 175 -212 212 -213 213 210 210 210 210 283 0 284 0 159 153 159 152 0
106 0 106 -149 141 -149 142 -169 0 -168 0 -163 163 -162 162 0 158 0 157 238
0 237 0 93 90 c51 50 95 90 97 90 3 0 67 -20 142 -45z m-2095 -1182 l168 -168
0 -314 0 -313 271 -279 271 -279 187 0 186 0 142 -142 143 -143 0 -95 0 -95
-160 -160 -160 -160 0 -160 0 -160 -120 -120 c-104 -104 -120 -124 -120 -152
l0 -33 -72 26 c-409 146 -789 449 -1030 819 -388 596 -444 1358 -148 2003 l43
92 116 0 116 0 167 -167z"/>
</g>
</svg>
